<svg xmlns="http://www.w3.org/2000/svg" width="427" height="364" viewBox="0 0 427 364">
    <defs>
        <linearGradient id="a" x1="41.313%" x2="50%" y1="0%" y2="100%">
            <stop offset="0%" stop-color="#FFF" stop-opacity="0"/>
            <stop offset="100%" stop-color="#FF5C62"/>
        </linearGradient>
    </defs>
    <g fill="none" fill-rule="evenodd" transform="translate(1)">
        <circle cx="218.725" cy="180.511" r="180.016" fill="#F8F8F8" fill-rule="nonzero"/>
        <rect width="193.252" height="12.583" x="124.11" y="350.931" fill="#FF5C62" fill-rule="nonzero" opacity=".3" rx="5.809" transform="rotate(180 220.736 357.223)"/>
        <path fill="#C63647" fill-rule="nonzero" d="M241.851 94.698l2.158.112a5.033 5.033 0 0 0 5.51-4.469l.793-7.75a5.027 5.027 0 0 0-4.486-5.491l-2.352-.16c-2.752-.275-2.852 1.894-3.134 4.634l-.8 7.75c-.3 2.752-.44 5.104 2.311 5.374z"/>
        <rect width="17.805" height="10.049" x="233.656" y="80.782" fill="#FF4D57" fill-rule="nonzero" rx="2.675" transform="rotate(-84.18 242.558 85.806)"/>
        <path fill="#FF4D57" fill-rule="nonzero" d="M247.72 81.804a.653.653 0 0 0 .587-.418c6.262-15.77-7.091-21.474-7.203-21.527a.664.664 0 0 0-.858.353.653.653 0 0 0 .358.853c.5.206 12.266 5.292 6.51 19.845a.653.653 0 0 0 .605.894z"/>
        <path fill="#F4737F" fill-rule="nonzero" d="M222.359 107.952c-1.176-.923-1.611-2.793-3.058-3.187a5.016 5.016 0 0 1-1.34-.312c-.518-.305-.682-.958-.9-1.517-.794-1.999-1.864-2.105-3.099-3.169l-.294 1.682-.317 1.834c1.634 1.353 4.604 3.946 8.408 4.604.2.024.4.03.6.065z"/>
        <path fill="#FF969B" fill-rule="nonzero" d="M227.868 107.952a2.487 2.487 0 0 0-.405-.259c-1.674.379-3.4.47-5.104.27 1.335 1.036 3.363.695 4.798 1.512a14.765 14.765 0 0 1-5.698.206c-3.81-.653-6.78-3.252-8.414-4.604l.306-1.764-2.123 13.288c-1.505 6.363 14.347 7.192 16.252.947l3.217-8.82c-1.517.823-1.582.212-2.829-.776z"/>
        <path fill="#F4737F" fill-rule="nonzero" d="M213.045 105.053c1.635 1.353 4.604 3.952 8.414 4.604 1.895.302 3.83.233 5.698-.206-1.435-.817-3.463-.476-4.798-1.51-.2 0-.4 0-.588-.065-3.805-.659-6.774-3.252-8.409-4.604l-.305 1.764-.012.017z"/>
        <path fill="#32454C" fill-rule="nonzero" d="M248.513 80.357c-.935-1.981 1.94-4.004 1.558-6.162-.24-1.358-1.676-2.176-2.205-3.452-.529-1.276-.123-2.599-.47-3.851-.63-2.31-3.363-3.305-4.745-5.292-1.07-1.517-1.523-4.598-5.222-5.85a2.217 2.217 0 0 0-1.71-.03c-.228.13-.415.318-.542.547-.24.106-.276.259-.405.5a2.281 2.281 0 0 1-3.123.652 10.631 10.631 0 0 0-1.764-2.399c-1.058-1.011-2.781-1.546-4.004-.735-.882.588-1.264 1.705-2.046 2.429-2.611 2.41-7.762-.776-10.09 1.91-1.241 1.43-.77 3.605-.23 5.416-.911-.823-2.27.588-2.316 1.8-.047 1.21.382 2.61-.353 3.598-.324.441-.841.711-1.176 1.123-1.511 1.688-.106 5.498 1.452 6.668l.1-.082c-.035.935 0 1.517 0 1.517-.653 5.88-.858 11.101 2.352 15.788-.476 1.017-1.446 1.934-1.176 3.01.106.447.418.823.553 1.264.43 1.43-.782 2.429.694 3.699 1.234 1.064 2.305 1.176 3.098 3.17.218.587.377 1.216.894 1.522.432.161.882.266 1.34.312 1.453.388 1.882 2.263 3.064 3.18 1.335 1.042 3.358.7 4.798 1.518.146.073.283.16.412.259 1.24 1.01 1.305 1.622 2.84.787 1.852-1.005 2.287.224 3.693.03.976-.135 1.587-1.094 2.399-1.652.44-.238.864-.503 1.27-.794.26-.245.487-.521.676-.823 4.069-5.945 3.887-5.104 3.675-7.75a14.524 14.524 0 0 0 1.952-4.64l.035-.2.253-1.47.4-2.299c-8.173 6.216-27.771 0-25.596-11.824l.324-1.882c.882-.182 2.04.082 2.387-.811.17-.43-.035-.923.106-1.359.282-.876 1.682-.9 2.058-1.764.588-1.3-1.317-2.17-.03-3.569 2.117 2.57 6.868 3.387 10.338 2.8a7.18 7.18 0 0 0 4.904-1.118l.623-.147c.14.526.633.879 1.176.84.676-.04 1.27-.464 1.934-.587 1.582-.247 2.876 1.382 3.176 2.94.27 1.393.317 3.492.588 5.039-.124.94-.095.688-.959 5.674.8-.888 1.993-3.393 2.523-3.998.635-.735 1.423-1.611 1.129-2.535a8.738 8.738 0 0 0-.612-.917zm-31.164-2.305c-.929 5.369-.711 5.01-1.9 7.55-.475 1.006-.105.841.377 1.564-.076.306-.153.588-.223.912-5.974-1.394-4.028-14.448 1.746-10.026z"/>
        <path fill="#FF969B" fill-rule="nonzero" d="M246.361 82.25c-.253-1.552-.3-3.663-.588-5.056-.3-1.576-1.6-3.21-3.187-2.97-.67.106-1.27.53-1.946.588a1.14 1.14 0 0 1-1.176-.846l-.624.152a7.268 7.268 0 0 1-4.921 1.124c-3.528.588-8.28-.265-10.378-2.811-1.294 1.4.588 2.275 0 3.58-.382.842-1.764.865-2.07 1.765-.141.435.065.935-.106 1.364-.347.894-1.517.635-2.393.817l-.33 1.888c-1.993 10.819 15.624 18.816 25.702 11.872.988-5.434 1.852-10.285 2.017-11.466z"/>
        <path fill="#F38C65" fill-rule="nonzero" d="M215.603 88.078c.07-.3.147-.588.223-.912-.482-.723-.852-.588-.376-1.564 1.176-2.54.97-2.181 1.9-7.55-5.775-4.422-7.698 8.638-1.747 10.026z"/>
        <path fill="#231866" fill-rule="nonzero" d="M226.78 83.374l2.206.37c.147.386.195.802.14 1.211l-2.875-.247c.02-.492.206-.963.53-1.334zM224.64 79.14c-.053.26.005.53.159.747a5.533 5.533 0 0 1 7.82.24.994.994 0 0 0 .206-.734c.806-3.164-8.726-3.193-8.185-.253zM237.1 81.868a.988.988 0 0 0 .13.759 5.533 5.533 0 0 1 7.808.523c.169-.204.251-.465.23-.729.91-3.046-8.585-3.51-8.168-.553zM241.975 85.943c.163.434.202.904.111 1.358l-2.881-.423c.037-.485.226-.946.541-1.317l2.229.382z"/>
        <path fill="#F4737F" fill-rule="nonzero" d="M236.63 94.375a.788.788 0 0 1-.724.847.794.794 0 0 1-.852-.73l-.588-8.231a.79.79 0 0 1 1.576-.124l.588 8.238z"/>
        <path fill="#F4737F" fill-rule="nonzero" d="M236.577 94.845c-.17.994-1.312.43-4.757-.164a.588.588 0 0 1-.447-.73.588.588 0 0 1 .67-.54c3.44.588 4.704.447 4.534 1.434z"/>
        <path fill="#2E273F" fill-rule="nonzero" d="M244.115 91.611l-5.175-.735a2.805 2.805 0 0 1-1.846-1.087 2.775 2.775 0 0 1-.53-2.07l.648-4.487a2.793 2.793 0 0 1 3.163-2.352l5.169.735a2.793 2.793 0 0 1 2.352 3.152l-.647 4.492a2.793 2.793 0 0 1-2.758 2.394 2.975 2.975 0 0 1-.376-.042zm-5.227-9.408c-.385.281-.64.705-.706 1.176l-.647 4.493c-.072.475.053.96.347 1.34.284.381.706.635 1.176.706l5.174.74c.478.07.962-.055 1.347-.346.384-.28.639-.705.706-1.176l.646-4.492a1.823 1.823 0 0 0-1.54-2.052l-5.175-.735h-.258a1.764 1.764 0 0 0-1.094.323l.024.023zM230.85 89.242l-7.933-1.13a3.175 3.175 0 0 1-2.075-1.257 3.987 3.987 0 0 1-.718-2.94l.36-2.511c.293-2.052 2.034-3.528 3.862-3.258l7.927 1.13c.917.136 1.727.67 2.216 1.457a3.94 3.94 0 0 1 .588 2.752l-.353 2.5a3.67 3.67 0 0 1-3.44 3.292 3.416 3.416 0 0 1-.434-.035zm-9.408-7.703l-.36 2.505a2.993 2.993 0 0 0 .536 2.228c.34.47.855.783 1.429.87l7.926 1.13c1.323.194 2.534-.906 2.758-2.429l.353-2.505a2.981 2.981 0 0 0-.43-2.081 2.187 2.187 0 0 0-1.528-1.017l-7.915-1.1a1.629 1.629 0 0 0-.288 0 2.687 2.687 0 0 0-2.47 2.399h-.011z"/>
        <path fill="#FFF" fill-rule="nonzero" d="M224.752 97.486l3.528 1.922a.84.84 0 0 0 1.129-.329l.312-.588a.83.83 0 0 0-.33-1.123l-3.528-1.923a.835.835 0 0 0-1.129.33l-.311.588a.83.83 0 0 0 .329 1.123z"/>
        <path fill="#A8222B" fill-rule="nonzero" d="M223.735 354.442h-13.559v-70.248h13.56z"/>
        <path fill="#B22852" fill-rule="nonzero" d="M242.41 285.616h-31.252V247.79h31.252z"/>
        <path fill="#A8222B" fill-rule="nonzero" d="M218.83 285.616h-31.252V247.79h31.252z"/>
        <path fill="#B22852" fill-rule="nonzero" d="M150.017 250.995h75.74l-17.052-141.167a12.225 12.225 0 0 0-12.148-10.737H131.69l18.328 151.904z"/>
        <path fill="#A8222B" fill-rule="nonzero" d="M152.463 264.448h1.388a7.885 7.885 0 0 0 7.985-9.05l-17.758-147.252a10.584 10.584 0 0 0-10.178-9.055h-1.388a7.897 7.897 0 0 0-7.996 9.055l17.769 147.253a10.549 10.549 0 0 0 10.178 9.05z"/>
        <path fill="#091619" fill-rule="nonzero" d="M300.157 207.865l-124.732 4.151v21.127H291.26z"/>
        <path fill="#FFF" fill-rule="nonzero" d="M232.89 187.244c4.704-10.96 16.035-12.977 21.22-23.667 4.499-9.279.118-27.854-6.673-35.727l-.159-.182c-17.552-13.948-23.114-8.99-34.992-9.555-.67-.03-1.334-.047-1.999-.06-12.895-.264-26.524 2.83-30.84 13.607-10.996 27.483-14.812 60.782-17.929 90.352-.24 2.305-.405 4.869 1.206 6.603a.77.77 0 0 1 .123.048l43.477-11.584c5.586 0 22.485-20.339 26.566-29.835z"/>
        <path fill="#FFF" fill-rule="nonzero" d="M179.952 130.66c2.464-6.244 11.284-11.671 18.252-9.772 5.962 1.64 7.944 10.049 5.492 16.288-4.116 10.46-9.232 21.756-14.189 32.928l-20.756-6.786c3.363-10.678 6.75-21.327 11.201-32.657z"/>
        <path fill="#FF969B" fill-rule="nonzero" d="M157.132 197.328c4.633-11.813 8.12-22.932 11.63-34.01l20.757 6.786c-3.528 7.92-6.962 15.776-9.878 23.208 16.464.911 37.526 6.568 54.348 6.386 15.876-.177 14.983 14.994-.887 15.17-22.844.247-40.508-3.022-63.346-2.77-7.403.071-15.564-7.279-12.624-14.77z"/>
        <path fill="#252254" fill-rule="nonzero" d="M291.678 239.376l-7.009-2.77c8.12-1.046 14.918-1.993 18.851-2.687 7.224-1.25 12.079-8.105 10.86-15.335 1.177 6.404-2.14 18.904-13.758 23.126a120.736 120.736 0 0 1-4.57 1.558c-.522-1.446-1.969-2.945-4.374-3.892z"/>
        <path fill="#091619" fill-rule="nonzero" d="M158.567 218.831c-1.211 7.227 3.64 14.075 10.86 15.33 3.728.652 10.114 1.522 17.81 2.498l-6.085 2.417c-2.652 1.047-4.157 2.758-4.54 4.351a123.077 123.077 0 0 1-4.286-1.47c-11.607-4.233-14.9-16.717-13.76-23.126z"/>
        <path fill="#4F1D51" fill-rule="nonzero" d="M206.395 245.756c3.17.313 6.37.115 9.478-.588 1.888-.383 9.996-1.388 20.692-2.682 11.566 1.341 20.456 2.405 22.42 2.793 2.58.566 5.217.814 7.856.741l15.006.912c-14.588 2.857-29.165 3.122-43.877 2.046-16.329 1.393-32.48 1.235-48.657-2.182l17.052-1.029.03-.011z"/>
        <path fill="#FF4D57" fill-rule="nonzero" d="M273.368 238.03c3.94-.489 7.744-.965 11.301-1.424l7.01 2.77c2.404.947 3.85 2.446 4.374 3.892.829 2.288-.659 4.47-4.469 4.24l-9.737-.588-15.006-.911c6.786-.33 8.479-3.964 6.527-7.98z"/>
        <path fill="#091619" fill-rule="nonzero" d="M266.841 246.009a32.493 32.493 0 0 1-7.856-.741c-1.964-.388-10.854-1.453-22.42-2.793 10.901-1.312 24.472-2.94 36.803-4.446 1.952 4.016.259 7.65-6.527 7.98z"/>
        <path fill="#FF4D57" fill-rule="nonzero" d="M181.152 239.076l6.086-2.405 17.734-7.003c1.146-.453 2.27-.141 2.352.647v.123c-8.92 5.128-10.755 14.042-.941 15.341l-17.052 1.03-8.062.487c-3.616.218-5.162-1.71-4.639-3.857.365-1.617 1.87-3.328 4.522-4.363z"/>
        <path fill="#A8222B" fill-rule="nonzero" d="M153.14 264.325h106.733a10.425 10.425 0 1 0 0-20.85H153.14a10.425 10.425 0 1 0 0 20.85z"/>
        <path fill="#B22852" fill-rule="nonzero" d="M158.455 354.442v-.383a6.88 6.88 0 0 1 6.88-6.85h67.731a6.88 6.88 0 0 1 6.88 6.85v.383h-81.491z"/>
        <path fill="#A8222B" fill-rule="nonzero" d="M198.662 354.442v-.153a6.891 6.891 0 0 1 6.88-6.862h67.744a6.891 6.891 0 0 1 6.88 6.862v.153h-81.504z"/>
        <path fill="#C63647" fill-rule="nonzero" d="M211.363 91.488l2.158.118a5.033 5.033 0 0 0 5.51-4.475l.794-7.75a5.016 5.016 0 0 0-4.481-5.533l-2.352-.159c-2.746-.282-2.852 1.888-3.134 4.628l-.794 7.75c-.311 2.763-.447 5.115 2.3 5.421z"/>
        <rect width="10.049" height="17.805" x="207.031" y="73.666" fill="#FF4D57" fill-rule="nonzero" rx="4.639" transform="rotate(-174.18 212.056 82.569)"/>
        <path fill="#181251" fill-rule="nonzero" d="M183.621 215.727h75.629a2.893 2.893 0 1 0 0-5.786h-75.629a2.893 2.893 0 1 0 0 5.786z"/>
        <path fill="#FF5C62" fill-rule="nonzero" d="M213.15 215.727h75.63a2.893 2.893 0 1 0 0-5.786h-75.63a2.893 2.893 0 1 0 0 5.786z"/>
        <path fill="#32454C" fill-rule="nonzero" d="M176.213 208.388c3.569.841 7.467 1.694 11.813 2.605 5.815 1.217 11.613 2.387 17.387 3.558a1269.966 1269.966 0 0 1 16.317 3.41 506.434 506.434 0 0 1 14.259 3.31 319.86 319.86 0 0 0-6.915 1.817c-5.833 1.594-11.643 3.358-17.417 5.357a25.431 25.431 0 0 0-4.322 1.97v-.124c-.076-.788-1.176-1.1-2.352-.647l-17.745 7.015c-7.697-.976-14.083-1.846-17.81-2.499a13.312 13.312 0 0 1 2.228-26.43c1.11-.015 2.218.108 3.298.364l1.259.294z"/>
        <path fill="#32454C" fill-rule="nonzero" d="M303.544 233.92c-3.934.693-10.731 1.64-18.851 2.686-3.528.459-7.362.935-11.302 1.423-12.348 1.523-25.872 3.134-36.803 4.446-10.678 1.293-18.816 2.299-20.691 2.68a29.718 29.718 0 0 1-9.479.589c-9.814-1.3-7.979-10.214.941-15.341a25.431 25.431 0 0 1 4.322-1.97c5.774-1.999 11.583-3.763 17.416-5.356a372.94 372.94 0 0 1 6.915-1.817c4.116-1.03 8.232-1.988 12.348-2.94 5.257-1.176 10.531-2.276 15.823-3.358 6.892-1.405 13.812-2.787 20.768-4.245 2.94-.588 5.64-1.176 8.203-1.764 1.688-.377 3.322-.753 4.863-1.123a13.75 13.75 0 0 1 1.176-.218c7.264-1.201 14.127 3.714 15.329 10.978 1.202 7.265-3.713 14.128-10.978 15.33z"/>
        <rect width="5.216" height="1.552" x="213.351" y="211.993" fill="#ADE3F7" fill-rule="nonzero" rx=".717" transform="rotate(180 215.958 212.769)"/>
        <rect width="27.848" height="9.773" x="204.801" y="117.448" fill="#FF969B" fill-rule="nonzero" rx="4.51" transform="rotate(180 218.725 122.334)"/>
        <path fill="#FF4D57" fill-rule="nonzero" d="M216.814 203.743l.73-1.088-8.562-5.686a23.937 23.937 0 0 1-5.798-34.498l1.7-2.228a43.447 43.447 0 0 0 8.89-26.248V90.929h-1.305v43.066a42.148 42.148 0 0 1-8.626 25.46l-1.7 2.228a25.231 25.231 0 0 0 6.11 36.368l8.561 5.692z"/>
        <path fill="url(#a)" fill-rule="nonzero" d="M131.018 81.597L58.288.34.147 136.398l29.447.277z" opacity=".3" transform="translate(181.828 73.26)"/>
        <path fill="#FF5C62" fill-rule="nonzero" d="M211.422 209.94h80.256l24.884-49.068a4.157 4.157 0 0 0-3.716-6.027h-69.384a6.662 6.662 0 0 0-5.95 3.675l-26.09 51.42z"/>
        <path fill="#FFF" d="M267.184 193.702c3.765 0 7.713-2.62 8.819-5.851 1.106-3.231-.678-5.851-3.985-5.851s-7.255 2.62-8.818 5.851c-1.564 3.231.22 5.851 3.984 5.851z" opacity=".839"/>
        <path fill="#B22852" fill-rule="nonzero" d="M192.447 264.325H295.46a10.425 10.425 0 1 0 0-20.85H192.447a10.425 10.425 0 1 0 0 20.85z"/>
        <path fill="#FF4D57" fill-rule="nonzero" d="M213.545 74.436a.659.659 0 0 0 .647-.588c.746-6.41 3.016-10.954 6.75-13.524 5.204-3.528 11.53-1.976 11.595-1.958a.653.653 0 1 0 .33-1.264c-.289-.07-6.974-1.764-12.66 2.146-4.063 2.77-6.521 7.644-7.315 14.424a.653.653 0 0 0 .588.723l.065.041z"/>
        <path fill="#FFF" fill-rule="nonzero" d="M232.467 81.598l.035-.253a.323.323 0 0 0-.27-.37l-1.818-.27a.33.33 0 0 0-.376.27l-.035.252a.323.323 0 0 0 .276.37l1.817.277c.178.022.34-.1.37-.276z"/>
        <rect width="1" height="2.493" x="244.603" y="82.452" fill="#FFF" fill-rule="nonzero" rx=".417" transform="rotate(98.58 245.056 83.699)"/>
        <path stroke="#32454C" stroke-linecap="round" stroke-width="1.176" d="M210.175 294.119l.077 40.201M224.293 288.292v15.023M224.293 313.411v6.215M188.872 354.065h88.812M209.329 264.73h27.965M246.873 263.954h11.912M124.451 110.921l15.458 124.78"/>
        <circle cx="389.568" cy="108.763" r="28.636" fill="#B22852" fill-rule="nonzero"/>
        <circle cx="388.516" cy="111.492" r="36.709" stroke="#B22852" stroke-width=".6"/>
        <circle cx="27.937" cy="170.656" r="27.712" stroke="#B22852" stroke-width=".6"/>
        <circle cx="167.81" cy="71.714" r="14.165" stroke="#B22852" stroke-width=".6"/>
        <circle cx="355.523" cy="222.195" r="14.665" fill="#B22852" fill-rule="nonzero"/>
        <circle cx="26.19" cy="171.521" r="18.387" fill="#B22852" fill-rule="nonzero"/>
        <circle cx="97.691" cy="43.59" r="8.061" fill="#B22852" fill-rule="nonzero"/>
        <circle cx="160.031" cy="72.59" r="3.51" fill="#B22852" fill-rule="nonzero"/>
        <circle cx="116.06" cy="285.463" r="8.05" fill="#B22852" fill-rule="nonzero"/>
    </g>
</svg>
